<?xml version="1.0" standalone="no"?>
<!DOCTYPE svg PUBLIC "-//W3C//DTD SVG 20010904//EN"
 "http://www.w3.org/TR/2001/REC-SVG-20010904/DTD/svg10.dtd">
<svg version="1.0" xmlns="http://www.w3.org/2000/svg"
 width="334.000000pt" height="334.000000pt" viewBox="0 0 334.000000 334.000000"
 preserveAspectRatio="xMidYMid meet">
<metadata>
Created by potrace 1.11, written by Peter Selinger 2001-2013
</metadata>
<g transform="translate(0.000000,334.000000) scale(0.100000,-0.100000)"
fill="#000000" stroke="none">
<path d="M1264 3096 c-22 -10 -35 -25 -42 -48 -15 -49 -12 -67 20 -98 50 -51
138 -27 153 42 9 39 -11 86 -46 103 -34 18 -45 18 -85 1z"/>
<path d="M823 2984 c-15 -23 -15 -29 -2 -52 21 -37 52 -45 83 -21 30 23 33 45
10 77 -22 32 -69 30 -91 -4z"/>
<path d="M1742 2988 c-88 -43 -88 -169 0 -214 73 -38 168 13 173 93 8 103 -83
166 -173 121z"/>
<path d="M984 2765 c-185 -42 -322 -120 -459 -259 -175 -179 -262 -386 -267
-636 -5 -311 136 -595 387 -775 193 -138 402 -193 652 -172 161 14 339 81 461
172 67 50 182 171 182 190 0 7 -11 37 -24 67 -69 155 -94 328 -72 494 17 125
77 280 150 387 14 21 26 45 26 53 0 14 -44 87 -67 112 -7 7 -13 17 -13 21 0
13 -135 147 -190 188 -218 161 -498 219 -766 158z"/>
<path d="M373 2629 c-146 -126 -249 -279 -312 -464 -50 -145 -61 -220 -57
-400 3 -134 8 -174 29 -248 66 -228 212 -445 401 -591 340 -264 773 -302 1204
-106 79 36 90 49 21 25 -204 -73 -470 -89 -664 -40 -33 9 -69 17 -80 20 -11 3
-33 10 -50 16 -379 142 -651 466 -721 859 -14 80 -20 286 -9 334 3 11 7 32 9
46 32 188 123 387 249 543 22 26 36 47 34 47 -3 0 -27 -19 -54 -41z"/>
<path d="M2525 2390 c-145 -38 -245 -98 -344 -206 -180 -197 -228 -499 -116
-741 74 -161 180 -267 340 -342 33 -15 74 -31 90 -35 17 -4 39 -10 50 -13 58
-14 225 -14 295 1 179 37 392 189 373 266 -9 38 -22 50 -58 50 -24 0 -44 -12
-86 -50 -60 -56 -165 -113 -249 -134 -55 -13 -198 -15 -253 -2 -182 43 -337
184 -399 364 -19 55 -23 87 -22 182 0 100 4 124 27 182 91 234 305 377 544
364 117 -7 203 -44 339 -146 41 -32 75 -50 92 -50 71 1 84 66 25 131 -144 160
-427 238 -648 179z"/>
<path d="M2061 1073 c-25 -54 -88 -140 -147 -199 -148 -147 -351 -241 -599
-278 -88 -13 -296 -14 -365 -2 -19 4 -62 11 -95 17 -91 16 -256 74 -350 124
-47 24 -85 43 -85 41 0 -2 33 -28 73 -59 175 -134 380 -230 587 -273 90 -19
334 -26 440 -12 182 24 411 115 578 230 42 29 117 93 167 142 81 80 88 89 72
100 -103 63 -169 112 -207 150 -25 25 -48 46 -51 46 -3 0 -11 -12 -18 -27z"/>
</g>
</svg>
